<svg width="152" height="54" viewBox="0 0 152 54" fill="none" xmlns="http://www.w3.org/2000/svg">
<path d="M40.1169 27.1493C38.5515 27.1493 37.205 26.8176 36.0773 26.1543C34.9564 25.4844 34.0941 24.5557 33.4904 23.3684C32.8935 22.1811 32.595 20.8147 32.595 19.2692C32.595 17.7038 32.8968 16.3307 33.5004 15.15C34.1106 13.9627 34.9763 13.0374 36.0972 12.3741C37.2182 11.7041 38.5515 11.3691 40.097 11.3691C41.4303 11.3691 42.5977 11.6113 43.5993 12.0955C44.6009 12.5797 45.3935 13.2596 45.9772 14.1351C46.561 15.0107 46.8827 16.0388 46.9424 17.2195H42.9426C42.8298 16.4567 42.5313 15.8432 42.0471 15.3789C41.5695 14.9079 40.9427 14.6724 40.1666 14.6724C39.51 14.6724 38.9362 14.8515 38.4454 15.2097C37.9611 15.5613 37.5831 16.0753 37.3111 16.7519C37.0391 17.4285 36.9032 18.2477 36.9032 19.2095C36.9032 20.1845 37.0358 21.0137 37.3012 21.6969C37.5731 22.3801 37.9545 22.9008 38.4454 23.259C38.9362 23.6172 39.51 23.7963 40.1666 23.7963C40.6509 23.7963 41.0853 23.6968 41.4701 23.4978C41.8614 23.2988 42.1831 23.0102 42.4352 22.6321C42.6939 22.2474 42.863 21.7864 42.9426 21.2491H46.9424C46.876 22.4166 46.5576 23.4447 45.9872 24.3335C45.4234 25.2157 44.644 25.9056 43.649 26.4031C42.6541 26.9005 41.4767 27.1493 40.1169 27.1493Z" fill="white"/>
<path d="M59.4565 20.3437V11.5681H63.6951V26.8508H59.6257V24.0748H59.4665C59.1215 24.9703 58.5478 25.69 57.7452 26.2339C56.9492 26.7778 55.9775 27.0498 54.8299 27.0498C53.8084 27.0498 52.9097 26.8176 52.1336 26.3533C51.3575 25.889 50.7506 25.229 50.3128 24.3733C49.8816 23.5177 49.6628 22.4928 49.6561 21.2989V11.5681H53.8947V20.5427C53.9013 21.4448 54.1434 22.1579 54.621 22.6819C55.0986 23.2059 55.7387 23.4679 56.5413 23.4679C57.052 23.4679 57.5296 23.3518 57.974 23.1197C58.4184 22.8809 58.7766 22.5293 59.0486 22.065C59.3272 21.6007 59.4632 21.0269 59.4565 20.3437Z" fill="white"/>
<path d="M67.0854 26.8508V11.5681H71.1946V14.2346H71.3538C71.6324 13.2861 72.1 12.5697 72.7567 12.0855C73.4134 11.5947 74.1696 11.3492 75.0252 11.3492C75.2375 11.3492 75.4663 11.3625 75.7118 11.389C75.9572 11.4156 76.1727 11.4521 76.3585 11.4985V15.2595C76.1595 15.1998 75.8842 15.1467 75.5327 15.1003C75.1811 15.0538 74.8594 15.0306 74.5675 15.0306C73.944 15.0306 73.3868 15.1666 72.896 15.4386C72.4118 15.7039 72.0271 16.0753 71.7418 16.5529C71.4632 17.0305 71.324 17.581 71.324 18.2046V26.8508H67.0854Z" fill="white"/>
<path d="M78.5499 26.8508V11.5681H82.7884V26.8508H78.5499ZM80.6791 9.59811C80.049 9.59811 79.5084 9.38917 79.0573 8.97128C78.6129 8.54677 78.3907 8.03933 78.3907 7.44899C78.3907 6.86528 78.6129 6.36448 79.0573 5.94659C79.5084 5.52207 80.049 5.30981 80.6791 5.30981C81.3093 5.30981 81.8465 5.52207 82.2909 5.94659C82.742 6.36448 82.9675 6.86528 82.9675 7.44899C82.9675 8.03933 82.742 8.54677 82.2909 8.97128C81.8465 9.38917 81.3093 9.59811 80.6791 9.59811Z" fill="white"/>
<path d="M93.0888 27.1493C91.5433 27.1493 90.2067 26.8209 89.0791 26.1643C87.9581 25.501 87.0925 24.579 86.4822 23.3983C85.872 22.2109 85.5669 20.8346 85.5669 19.2692C85.5669 17.6905 85.872 16.3108 86.4822 15.1301C87.0925 13.9428 87.9581 13.0208 89.0791 12.3641C90.2067 11.7008 91.5433 11.3691 93.0888 11.3691C94.6343 11.3691 95.9676 11.7008 97.0886 12.3641C98.2162 13.0208 99.0851 13.9428 99.6954 15.1301C100.306 16.3108 100.611 17.6905 100.611 19.2692C100.611 20.8346 100.306 22.2109 99.6954 23.3983C99.0851 24.579 98.2162 25.501 97.0886 26.1643C95.9676 26.8209 94.6343 27.1493 93.0888 27.1493ZM93.1087 23.8659C93.8118 23.8659 94.3988 23.6669 94.8698 23.2689C95.3407 22.8643 95.6956 22.3138 95.9344 21.6173C96.1798 20.9208 96.3025 20.1282 96.3025 19.2393C96.3025 18.3505 96.1798 17.5578 95.9344 16.8614C95.6956 16.1649 95.3407 15.6143 94.8698 15.2097C94.3988 14.8051 93.8118 14.6028 93.1087 14.6028C92.399 14.6028 91.802 14.8051 91.3178 15.2097C90.8402 15.6143 90.4787 16.1649 90.2333 16.8614C89.9945 17.5578 89.8751 18.3505 89.8751 19.2393C89.8751 20.1282 89.9945 20.9208 90.2333 21.6173C90.4787 22.3138 90.8402 22.8643 91.3178 23.2689C91.802 23.6669 92.399 23.8659 93.1087 23.8659Z" fill="white"/>
<path d="M116.082 15.9261L112.202 16.1649C112.136 15.8332 111.993 15.5347 111.774 15.2694C111.555 14.9975 111.267 14.7819 110.909 14.6227C110.557 14.4569 110.136 14.3739 109.645 14.3739C108.988 14.3739 108.434 14.5132 107.983 14.7918C107.532 15.0638 107.307 15.4286 107.307 15.8863C107.307 16.2511 107.453 16.5595 107.745 16.8116C108.036 17.0637 108.537 17.266 109.247 17.4185L112.013 17.9757C113.499 18.2808 114.607 18.7717 115.336 19.4483C116.066 20.1248 116.431 21.0137 116.431 22.1148C116.431 23.1164 116.135 23.9952 115.545 24.7514C114.961 25.5076 114.159 26.0979 113.137 26.5225C112.122 26.9403 110.952 27.1493 109.625 27.1493C107.602 27.1493 105.99 26.7281 104.79 25.8857C103.596 25.0366 102.896 23.8825 102.69 22.4232L106.859 22.2043C106.985 22.8212 107.29 23.2921 107.774 23.6172C108.259 23.9355 108.879 24.0947 109.635 24.0947C110.378 24.0947 110.975 23.9521 111.426 23.6669C111.884 23.3751 112.116 23.0003 112.122 22.5426C112.116 22.1579 111.953 21.8428 111.635 21.5974C111.317 21.3453 110.826 21.153 110.162 21.0203L107.516 20.493C106.023 20.1945 104.912 19.6771 104.183 18.9408C103.46 18.2046 103.098 17.266 103.098 16.1251C103.098 15.1434 103.363 14.2977 103.894 13.5879C104.431 12.8782 105.184 12.3309 106.153 11.9462C107.128 11.5615 108.269 11.3691 109.575 11.3691C111.506 11.3691 113.025 11.7771 114.132 12.593C115.247 13.4088 115.897 14.5199 116.082 15.9261Z" fill="white"/>
<path d="M119.1 26.8508V11.5681H123.338V26.8508H119.1ZM121.229 9.59811C120.599 9.59811 120.058 9.38917 119.607 8.97128C119.163 8.54677 118.94 8.03933 118.94 7.44899C118.94 6.86528 119.163 6.36448 119.607 5.94659C120.058 5.52207 120.599 5.30981 121.229 5.30981C121.859 5.30981 122.396 5.52207 122.841 5.94659C123.292 6.36448 123.517 6.86528 123.517 7.44899C123.517 8.03933 123.292 8.54677 122.841 8.97128C122.396 9.38917 121.859 9.59811 121.229 9.59811Z" fill="white"/>
<path d="M134.862 11.5681V14.752H125.659V11.5681H134.862ZM127.748 7.90667H131.987V22.1546C131.987 22.5459 132.047 22.851 132.166 23.0699C132.285 23.2822 132.451 23.4314 132.664 23.5177C132.882 23.6039 133.134 23.647 133.42 23.647C133.619 23.647 133.818 23.6304 134.017 23.5973C134.216 23.5575 134.368 23.5276 134.474 23.5077L135.141 26.6618C134.929 26.7281 134.63 26.8044 134.245 26.8906C133.861 26.9835 133.393 27.0398 132.843 27.0597C131.821 27.0995 130.926 26.9636 130.156 26.6518C129.393 26.34 128.8 25.8558 128.375 25.1992C127.951 24.5425 127.742 23.7133 127.748 22.7117V7.90667Z" fill="white"/>
<path d="M140.24 32.5818C139.703 32.5818 139.199 32.5387 138.728 32.4524C138.263 32.3728 137.879 32.27 137.574 32.144L138.529 28.98C139.026 29.1326 139.474 29.2155 139.872 29.2288C140.277 29.242 140.625 29.1492 140.917 28.9502C141.215 28.7512 141.457 28.4129 141.643 27.9353L141.892 27.2886L136.41 11.5681H140.867L144.031 22.7913H144.19L147.384 11.5681H151.871L145.931 28.5024C145.646 29.3249 145.258 30.0413 144.767 30.6516C144.283 31.2684 143.669 31.7427 142.927 32.0744C142.184 32.4126 141.288 32.5818 140.24 32.5818Z" fill="white"/>
<path d="M37.4505 33.3246V53.7015H33.2119V33.3246H37.4505Z" fill="white"/>
<path d="M45.2037 53.9901C44.2287 53.9901 43.3597 53.8209 42.5969 53.4826C41.8341 53.1377 41.2305 52.6303 40.7861 51.9603C40.3483 51.2838 40.1294 50.4413 40.1294 49.4331C40.1294 48.5841 40.2853 47.871 40.597 47.2939C40.9088 46.7169 41.3333 46.2525 41.8706 45.901C42.4079 45.5494 43.0181 45.2841 43.7013 45.105C44.3912 44.9259 45.1142 44.7999 45.8703 44.7269C46.7592 44.6341 47.4756 44.5478 48.0195 44.4682C48.5634 44.382 48.9581 44.256 49.2035 44.0902C49.4489 43.9243 49.5716 43.6789 49.5716 43.3539V43.2942C49.5716 42.664 49.3726 42.1765 48.9746 41.8316C48.5833 41.4867 48.0261 41.3142 47.3031 41.3142C46.5403 41.3142 45.9334 41.4834 45.4823 41.8216C45.0313 42.1533 44.7328 42.5712 44.5868 43.0753L40.6667 42.7569C40.8657 41.8283 41.257 41.0257 41.8407 40.3491C42.4245 39.6659 43.1773 39.1419 44.0993 38.777C45.0279 38.4056 46.1025 38.2199 47.323 38.2199C48.172 38.2199 48.9846 38.3194 49.7607 38.5184C50.5434 38.7174 51.2365 39.0258 51.8401 39.4437C52.4504 39.8616 52.9313 40.3988 53.2828 41.0555C53.6344 41.7056 53.8102 42.485 53.8102 43.3937V53.7015H49.7905V51.5822H49.6711C49.4257 52.0598 49.0973 52.481 48.6861 52.8458C48.2748 53.204 47.7807 53.4859 47.2036 53.6916C46.6265 53.8906 45.9599 53.9901 45.2037 53.9901ZM46.4176 51.0649C47.0411 51.0649 47.5916 50.9421 48.0692 50.6967C48.5468 50.4447 48.9216 50.1064 49.1935 49.6819C49.4655 49.2573 49.6015 48.7764 49.6015 48.2392V46.6174C49.4688 46.7036 49.2864 46.7832 49.0542 46.8562C48.8287 46.9225 48.5733 46.9855 48.2881 47.0452C48.0029 47.0983 47.7177 47.148 47.4324 47.1944C47.1472 47.2342 46.8885 47.2707 46.6564 47.3039C46.1589 47.3769 45.7244 47.4929 45.353 47.6521C44.9815 47.8113 44.693 48.0269 44.4873 48.2989C44.2817 48.5642 44.1789 48.8958 44.1789 49.2938C44.1789 49.8709 44.3878 50.312 44.8057 50.6171C45.2303 50.9156 45.7675 51.0649 46.4176 51.0649Z" fill="white"/>
<path d="M57.1781 53.7015V33.3246H61.4167V40.9859H61.546C61.7317 40.5746 62.0004 40.1567 62.3519 39.7322C62.7101 39.3011 63.1744 38.9429 63.7449 38.6577C64.322 38.3658 65.0383 38.2199 65.894 38.2199C67.0084 38.2199 68.0365 38.5117 68.9784 39.0954C69.9203 39.6725 70.6731 40.5448 71.237 41.7122C71.8008 42.873 72.0827 44.3289 72.0827 46.0801C72.0827 47.7848 71.8074 49.2242 71.2569 50.3982C70.7129 51.5657 69.97 52.4512 69.0281 53.0548C68.0929 53.6518 67.0448 53.9503 65.8841 53.9503C65.0615 53.9503 64.3618 53.8143 63.7847 53.5423C63.2142 53.2704 62.7466 52.9288 62.3818 52.5175C62.017 52.0996 61.7384 51.6784 61.546 51.2539H61.357V53.7015H57.1781ZM61.3271 46.0602C61.3271 46.9689 61.4531 47.7616 61.7052 48.4382C61.9573 49.1147 62.3221 49.6421 62.7997 50.0201C63.2772 50.3916 63.8576 50.5773 64.5408 50.5773C65.2307 50.5773 65.8144 50.3883 66.292 50.0102C66.7696 49.6255 67.1311 49.0948 67.3765 48.4183C67.6286 47.735 67.7546 46.949 67.7546 46.0602C67.7546 45.178 67.6319 44.4019 67.3864 43.732C67.141 43.062 66.7795 42.538 66.3019 42.1599C65.8244 41.7818 65.2373 41.5928 64.5408 41.5928C63.851 41.5928 63.2673 41.7752 62.7897 42.14C62.3188 42.5048 61.9573 43.0222 61.7052 43.6922C61.4531 44.3621 61.3271 45.1515 61.3271 46.0602Z" fill="white"/>
<path d="M87.6265 42.7768L83.7461 43.0156C83.6798 42.6839 83.5372 42.3855 83.3183 42.1201C83.0994 41.8482 82.8109 41.6326 82.4527 41.4734C82.1011 41.3076 81.6799 41.2247 81.1891 41.2247C80.5324 41.2247 79.9785 41.364 79.5275 41.6425C79.0764 41.9145 78.8509 42.2793 78.8509 42.737C78.8509 43.1018 78.9968 43.4103 79.2887 43.6623C79.5806 43.9144 80.0814 44.1167 80.7911 44.2693L83.5571 44.8264C85.0429 45.1316 86.1506 45.6224 86.8803 46.299C87.6099 46.9756 87.9747 47.8644 87.9747 48.9655C87.9747 49.9671 87.6796 50.846 87.0892 51.6021C86.5055 52.3583 85.7029 52.9487 84.6814 53.3732C83.6665 53.7911 82.4958 54 81.1692 54C79.1461 54 77.5343 53.5788 76.3337 52.7364C75.1397 51.8874 74.4399 50.7332 74.2343 49.2739L78.4032 49.055C78.5292 49.6719 78.8343 50.1429 79.3186 50.4679C79.8028 50.7863 80.423 50.9455 81.1791 50.9455C81.922 50.9455 82.519 50.8029 82.9701 50.5176C83.4278 50.2258 83.6599 49.851 83.6665 49.3933C83.6599 49.0086 83.4974 48.6935 83.179 48.4481C82.8606 48.196 82.3698 48.0037 81.7065 47.871L79.0599 47.3437C77.5674 47.0452 76.4564 46.5278 75.7267 45.7915C75.0037 45.0553 74.6422 44.1167 74.6422 42.9758C74.6422 41.9941 74.9076 41.1484 75.4382 40.4386C75.9755 39.7289 76.7283 39.1817 77.6968 38.7969C78.6718 38.4122 79.8127 38.2199 81.1194 38.2199C83.0497 38.2199 84.5687 38.6278 85.6764 39.4437C86.7907 40.2595 87.4408 41.3706 87.6265 42.7768Z" fill="white"/>
<path d="M20.6256 9.43408H0.659126C0.123123 9.43408 -0.105088 10.4583 0.045446 11.1474C0.120595 11.4913 0.419713 11.7147 0.7209 11.8971L1.74042 12.5144C2.0416 12.6968 2.37762 12.9126 2.40901 13.2632C2.4111 13.2866 2.41216 13.3101 2.41216 13.3338L2.58305 46.7129C2.58305 49.856 6.156 53.7016 11.3292 53.7016C15.7215 53.7016 18.6681 49.2339 18.7331 46.7129V13.3338C18.7331 13.2764 18.7394 13.2198 18.7514 13.1646C18.8127 12.885 19.0708 12.7084 19.308 12.5483L20.8316 11.5201C21.0688 11.36 21.3161 11.1781 21.3785 10.8987C21.5126 10.2984 21.1772 9.43408 20.6256 9.43408Z" fill="#D0D0D0"/>
<path d="M19.2368 10.1597H1.80854C1.42478 10.1597 1.15476 10.4373 1.09921 10.7571C1.02365 11.1921 1.49129 11.4724 1.88447 11.6731L2.57581 12.0261C2.89887 12.191 3.26432 12.4079 3.26432 12.7706V46.2557C3.26432 49.1148 6.39465 52.613 11.1546 52.613C15.1961 52.613 17.9073 48.549 17.9672 46.2557V12.7706C17.9672 12.4072 18.328 12.1838 18.6436 12.0038L19.258 11.6533C19.5875 11.4653 19.9711 11.2305 19.9562 10.8515C19.9421 10.494 19.6579 10.1597 19.2368 10.1597Z" fill="url(#paint0_linear_7_129)"/>
<path d="M18.1422 25.4489C14.0817 23.1555 11.3363 24.3141 9.61522 25.4489L3.26538 29.3907H18.1422V25.4489Z" fill="url(#paint1_linear_7_129)"/>
<path d="M8.4853 25.3865C5.97974 23.4384 3.96137 24.5748 3.26538 25.3865V37.7362H18.1422V26.5171C18.1422 26.5171 14.8909 27.6384 12.9222 27.2849C11.0496 26.9485 8.4853 25.3865 8.4853 25.3865Z" fill="url(#paint2_linear_7_129)"/>
<path d="M3.26538 36.0278V44.0529C3.26538 51.4292 8.80093 52.818 11.5687 52.5903C15.9971 52.5903 17.9115 48.4924 18.1422 46.4434L17.9692 35.3021C16.1701 37.2145 12.8949 36.8246 11.5687 36.0278C7.43814 34.8334 4.24563 35.6294 3.26538 36.0278Z" fill="url(#paint3_linear_7_129)"/>
<path d="M5.65017 10.5226H2.54004L4.26789 12.9502V42.9478C4.26789 44.5084 4.61346 46.2423 5.65017 47.8029C6.68688 49.3635 9.797 49.7102 9.797 49.7102C9.797 49.7102 7.37802 48.4387 6.85966 47.8029C5.90934 46.329 5.39099 44.1616 5.39099 42.9478L5.65017 10.5226Z" fill="white" fill-opacity="0.7"/>
<path d="M17.1842 41.1444L18.1422 40.2762V46.9615C16.7487 50.7818 14.9554 52.4743 11.349 52.605C7.51702 52.7439 6.12355 51.0422 4.85283 49.8267C2.93682 48.1771 3.22712 44.791 3.37227 43.4886C3.58129 45.7808 5.36876 48.206 6.12355 48.8716C8.35309 50.8859 10.6009 50.3476 11.9943 49.8267C12.9009 49.0453 14.165 47.1641 14.136 45.6592C14.4843 44.1832 15.8778 43.1413 17.1842 42.7072C18.2292 42.3599 17.6196 41.5206 17.1842 41.1444Z" fill="#270C51"/>
<path fill-rule="evenodd" clip-rule="evenodd" d="M10.6492 17.5132C10.9581 18.0483 11.8145 18.2317 12.3496 17.9227C12.8847 17.6138 13.068 16.9295 12.7591 16.3944C12.4502 15.8593 11.7659 15.676 11.2308 15.9849C10.6957 16.2939 10.3402 16.9781 10.6492 17.5132ZM11.1196 17.3411C11.3335 17.7116 11.8072 17.8385 12.1777 17.6246C12.5481 17.4107 12.526 17.0231 12.3121 16.6526C12.0982 16.2822 11.7736 16.0692 11.4031 16.2831C11.0327 16.4969 10.9057 16.9706 11.1196 17.3411Z" fill="white"/>
<path fill-rule="evenodd" clip-rule="evenodd" d="M12.5647 6.73495C12.8737 7.27006 13.73 7.4534 14.2651 7.14446C14.8002 6.83551 14.9836 6.15128 14.6746 5.61617C14.3657 5.08107 13.6814 4.89773 13.1463 5.20667C12.6112 5.51561 12.2558 6.19985 12.5647 6.73495ZM13.0351 6.56282C13.249 6.93328 13.7227 7.06021 14.0932 6.84632C14.4636 6.63244 14.4415 6.2448 14.2276 5.87434C14.0137 5.50388 13.6891 5.29089 13.3186 5.50478C12.9482 5.71866 12.8213 6.19236 13.0351 6.56282Z" fill="#5FD7EC"/>
<path fill-rule="evenodd" clip-rule="evenodd" d="M6.23674 3.1923C6.70915 4.01054 8.01862 4.29089 8.83686 3.81848C9.6551 3.34607 9.93545 2.29979 9.46304 1.48155C8.99063 0.663314 7.94435 0.382964 7.12611 0.855375C6.30787 1.32779 5.76433 2.37406 6.23674 3.1923ZM6.95545 2.92912C7.2825 3.4956 8.00685 3.68968 8.57332 3.36263C9.13979 3.03558 9.10595 2.44283 8.7789 1.87635C8.45184 1.30988 7.95543 0.984197 7.38895 1.31125C6.82248 1.6383 6.62839 2.36265 6.95545 2.92912Z" fill="#5FD7EC"/>
<path fill-rule="evenodd" clip-rule="evenodd" d="M8.15718 22.2026C8.57948 22.3158 9.09966 21.979 9.21282 21.5567C9.32597 21.1344 9.07536 20.7004 8.65307 20.5872C8.23077 20.4741 7.7967 20.7247 7.68354 21.147C7.57039 21.5693 7.73488 22.0894 8.15718 22.2026ZM8.30633 21.8812C8.59869 21.9595 8.8992 21.786 8.97754 21.4936C9.05588 21.2013 8.85086 21.0184 8.5585 20.9401C8.26614 20.8617 7.99715 20.9176 7.91881 21.21C7.84047 21.5023 8.01397 21.8028 8.30633 21.8812Z" fill="white"/>
<path fill-rule="evenodd" clip-rule="evenodd" d="M7.78224 12.8914C7.89217 13.5859 8.72721 14.1301 9.42176 14.0202C10.1163 13.9102 10.5902 13.2581 10.4803 12.5635C10.3704 11.869 9.7182 11.395 9.02365 11.505C8.3291 11.6149 7.67231 12.1968 7.78224 12.8914ZM8.35221 12.9003C8.42832 13.3812 8.87981 13.7093 9.36066 13.6331C9.8415 13.557 10.1482 13.1362 10.0721 12.6553C9.99603 12.1745 9.56589 11.8157 9.08505 11.8919C8.6042 11.968 8.2761 12.4195 8.35221 12.9003Z" fill="white"/>
<defs>
<linearGradient id="paint0_linear_7_129" x1="10.561" y1="51.4098" x2="10.561" y2="10.1597" gradientUnits="userSpaceOnUse">
<stop stop-color="#1EE9E5"/>
<stop offset="1" stop-color="#75D0EE"/>
</linearGradient>
<linearGradient id="paint1_linear_7_129" x1="10.7038" y1="24.3108" x2="10.7038" y2="29.3907" gradientUnits="userSpaceOnUse">
<stop stop-color="#C7D337"/>
<stop offset="1" stop-color="#FFB038"/>
</linearGradient>
<linearGradient id="paint2_linear_7_129" x1="10.7038" y1="23.6151" x2="10.7038" y2="37.7363" gradientUnits="userSpaceOnUse">
<stop stop-color="#ED9205"/>
<stop offset="1" stop-color="#F8920C"/>
</linearGradient>
<linearGradient id="paint3_linear_7_129" x1="10.5308" y1="35.4999" x2="10.5308" y2="52.613" gradientUnits="userSpaceOnUse">
<stop stop-color="#E9231B"/>
<stop offset="1" stop-color="#9C0838"/>
</linearGradient>
</defs>
</svg>
